<svg width="56" height="56" viewBox="0 0 56 56" fill="none" xmlns="http://www.w3.org/2000/svg">
<g id="call_28dp_UNDEFINED_FILL0_wght400_GRAD0_opsz24 3">
<rect width="56" height="56" rx="9.33333" fill="#37A0D2"/>
<path id="Vector" d="M42.1333 44C38.4296 44 34.7704 43.1926 31.1556 41.5778C27.5407 39.963 24.2519 37.6741 21.2889 34.7111C18.3259 31.7481 16.037 28.4593 14.4222 24.8444C12.8074 21.2296 12 17.5704 12 13.8667C12 13.3333 12.1778 12.8889 12.5333 12.5333C12.8889 12.1778 13.3333 12 13.8667 12H21.0667C21.4815 12 21.8519 12.1407 22.1778 12.4222C22.5037 12.7037 22.6963 13.037 22.7556 13.4222L23.9111 19.6444C23.9704 20.1185 23.9556 20.5185 23.8667 20.8444C23.7778 21.1704 23.6148 21.4519 23.3778 21.6889L19.0667 26.0444C19.6593 27.1407 20.363 28.2 21.1778 29.2222C21.9926 30.2444 22.8889 31.2296 23.8667 32.1778C24.7852 33.0963 25.7481 33.9481 26.7556 34.7333C27.763 35.5185 28.8296 36.237 29.9556 36.8889L34.1333 32.7111C34.4 32.4444 34.7481 32.2444 35.1778 32.1111C35.6074 31.9778 36.0296 31.9407 36.4444 32L42.5778 33.2444C42.9926 33.363 43.3333 33.5778 43.6 33.8889C43.8667 34.2 44 34.5481 44 34.9333V42.1333C44 42.6667 43.8222 43.1111 43.4667 43.4667C43.1111 43.8222 42.6667 44 42.1333 44ZM17.3778 22.6667L20.3111 19.7333L19.5556 15.5556H15.6C15.7481 16.7704 15.9556 17.9704 16.2222 19.1556C16.4889 20.3407 16.8741 21.5111 17.3778 22.6667ZM33.2889 38.5778C34.4444 39.0815 35.6222 39.4815 36.8222 39.7778C38.0222 40.0741 39.2296 40.2667 40.4444 40.3556V36.4444L36.2667 35.6L33.2889 38.5778Z" fill="white"/>
</g>
</svg>
