<svg width="18" height="18" viewBox="0 0 18 18" fill="none" xmlns="http://www.w3.org/2000/svg">
<g id="Finger">
<path id="Vector" d="M1.05859 14.558H4.423V7.63066H1.05859V14.558ZM2.74212 12.2207C2.90008 12.2207 3.05157 12.2834 3.16327 12.3951C3.27496 12.5068 3.33771 12.6583 3.33771 12.8163C3.33771 12.9742 3.27496 13.1257 3.16327 13.2374C3.05157 13.3491 2.90008 13.4118 2.74212 13.4118C2.58416 13.4118 2.43267 13.3491 2.32098 13.2374C2.20928 13.1257 2.14653 12.9742 2.14653 12.8163C2.14653 12.6583 2.20928 12.5068 2.32098 12.3951C2.43267 12.2834 2.58416 12.2207 2.74212 12.2207ZM16.7715 8.0886C16.72 8.03439 16.658 7.9912 16.5893 7.96162C16.5206 7.93205 16.4466 7.91672 16.3718 7.91654H9.22477C9.17251 7.91685 9.12133 7.90168 9.07767 7.87295C9.03402 7.84421 8.99985 7.8032 8.97947 7.75508C8.95909 7.70695 8.95341 7.65387 8.96314 7.60253C8.97288 7.55118 8.9976 7.50387 9.03418 7.46654L11.0618 5.37537C11.2938 5.13422 11.4234 4.81262 11.4234 4.47801C11.4234 4.14341 11.2938 3.82181 11.0618 3.58066C11.0185 3.53656 10.9668 3.50154 10.9097 3.47763C10.8527 3.45372 10.7915 3.44141 10.7296 3.44141C10.6678 3.44141 10.6066 3.45372 10.5495 3.47763C10.4925 3.50154 10.4408 3.53656 10.3974 3.58066L6.32624 7.79478C6.30141 7.82011 6.27175 7.84019 6.23901 7.85383C6.20627 7.86748 6.17112 7.8744 6.13565 7.87419H5.75183C5.53674 7.88043 5.33278 7.97117 5.18413 8.12675C5.03549 8.28233 4.95414 8.49022 4.95771 8.70537V13.298C4.95345 13.5506 5.04935 13.7945 5.22445 13.9766C5.39955 14.1586 5.6396 14.2639 5.89212 14.2695H12.7057C12.8579 14.2697 13.0049 14.2136 13.1183 14.1119C13.2317 14.0103 13.3034 13.8703 13.3198 13.7189C13.3267 13.6335 13.3154 13.5475 13.2866 13.4667C13.2579 13.386 13.2123 13.3122 13.153 13.2504C13.1013 13.1964 13.0393 13.1534 12.9706 13.1238C12.9019 13.0943 12.828 13.0788 12.7533 13.0783H10.8077C10.7375 13.0783 10.6702 13.0504 10.6205 13.0008C10.5709 12.9511 10.543 12.8838 10.543 12.8136C10.543 12.7434 10.5709 12.6761 10.6205 12.6264C10.6702 12.5768 10.7375 12.5489 10.8077 12.5489H12.7057C12.8579 12.5491 13.0049 12.493 13.1183 12.3914C13.2317 12.2897 13.3034 12.1497 13.3198 11.9983C13.3267 11.9129 13.3154 11.8269 13.2866 11.7462C13.2579 11.6654 13.2123 11.5916 13.153 11.5298C13.1013 11.4758 13.0393 11.4328 12.9706 11.4032C12.9019 11.3737 12.828 11.3582 12.7533 11.3577H10.8077C10.7375 11.3577 10.6702 11.3298 10.6205 11.2802C10.5709 11.2305 10.543 11.1632 10.543 11.093C10.543 11.0228 10.5709 10.9555 10.6205 10.9058C10.6702 10.8562 10.7375 10.8283 10.8077 10.8283H12.7057C12.8581 10.8291 13.0054 10.7732 13.1189 10.6715C13.2324 10.5697 13.304 10.4293 13.3198 10.2777C13.3267 10.1923 13.3154 10.1063 13.2866 10.0256C13.2579 9.9448 13.2123 9.87106 13.153 9.80919C13.1013 9.75523 13.0393 9.71219 12.9706 9.68263C12.9019 9.65308 12.828 9.63761 12.7533 9.63713H10.8077C10.7375 9.63713 10.6702 9.60925 10.6205 9.5596C10.5709 9.50996 10.543 9.44263 10.543 9.37243C10.543 9.30222 10.5709 9.23489 10.6205 9.18525C10.6702 9.13561 10.7375 9.10772 10.8077 9.10772H16.3242C16.4771 9.1092 16.625 9.05359 16.7391 8.95176C16.8532 8.84993 16.9251 8.70922 16.9409 8.55713C16.9475 8.47149 16.9358 8.38543 16.9066 8.30466C16.8774 8.22389 16.8314 8.15024 16.7715 8.0886Z" fill="white"/>
</g>
</svg>
