<svg width="22" height="22" viewBox="0 0 22 22" fill="none" xmlns="http://www.w3.org/2000/svg">
<g id="language_28dp_UNDEFINED_FILL0_wght400_GRAD0_opsz24 1">
<path id="Vector" d="M10.9997 20.1663C9.7469 20.1663 8.56287 19.9257 7.44759 19.4445C6.33231 18.9632 5.35835 18.3063 4.52572 17.4736C3.69308 16.641 3.03613 15.667 2.55488 14.5518C2.07363 13.4365 1.83301 12.2525 1.83301 10.9997C1.83301 9.73162 2.07363 8.54377 2.55488 7.43613C3.03613 6.32849 3.69308 5.35835 4.52572 4.52572C5.35835 3.69308 6.33231 3.03613 7.44759 2.55488C8.56287 2.07363 9.7469 1.83301 10.9997 1.83301C12.2677 1.83301 13.4556 2.07363 14.5632 2.55488C15.6709 3.03613 16.641 3.69308 17.4736 4.52572C18.3063 5.35835 18.9632 6.32849 19.4445 7.43613C19.9257 8.54377 20.1663 9.73162 20.1663 10.9997C20.1663 12.2525 19.9257 13.4365 19.4445 14.5518C18.9632 15.667 18.3063 16.641 17.4736 17.4736C16.641 18.3063 15.6709 18.9632 14.5632 19.4445C13.4556 19.9257 12.2677 20.1663 10.9997 20.1663ZM10.9997 18.2872C11.3969 17.7372 11.7406 17.1643 12.0309 16.5684C12.3212 15.9726 12.558 15.3386 12.7413 14.6663H9.25801C9.44134 15.3386 9.67815 15.9726 9.96842 16.5684C10.2587 17.1643 10.6025 17.7372 10.9997 18.2872ZM8.61634 17.9205C8.34134 17.4163 8.10072 16.8931 7.89447 16.3507C7.68822 15.8084 7.51634 15.2469 7.37884 14.6663H4.67467C5.11773 15.4302 5.67155 16.0948 6.33613 16.6601C7.00072 17.2254 7.76079 17.6455 8.61634 17.9205ZM13.383 17.9205C14.2386 17.6455 14.9986 17.2254 15.6632 16.6601C16.3278 16.0948 16.8816 15.4302 17.3247 14.6663H14.6205C14.483 15.2469 14.3111 15.8084 14.1049 16.3507C13.8986 16.8931 13.658 17.4163 13.383 17.9205ZM3.89551 12.833H7.01217C6.96634 12.5275 6.93197 12.2257 6.90905 11.9278C6.88613 11.6299 6.87467 11.3205 6.87467 10.9997C6.87467 10.6788 6.88613 10.3695 6.90905 10.0715C6.93197 9.77363 6.96634 9.4719 7.01217 9.16634H3.89551C3.81912 9.4719 3.76183 9.77363 3.72363 10.0715C3.68544 10.3695 3.66634 10.6788 3.66634 10.9997C3.66634 11.3205 3.68544 11.6299 3.72363 11.9278C3.76183 12.2257 3.81912 12.5275 3.89551 12.833ZM8.84551 12.833H13.1538C13.1997 12.5275 13.234 12.2257 13.257 11.9278C13.2799 11.6299 13.2913 11.3205 13.2913 10.9997C13.2913 10.6788 13.2799 10.3695 13.257 10.0715C13.234 9.77363 13.1997 9.4719 13.1538 9.16634H8.84551C8.79967 9.4719 8.7653 9.77363 8.74238 10.0715C8.71947 10.3695 8.70801 10.6788 8.70801 10.9997C8.70801 11.3205 8.71947 11.6299 8.74238 11.9278C8.7653 12.2257 8.79967 12.5275 8.84551 12.833ZM14.9872 12.833H18.1038C18.1802 12.5275 18.2375 12.2257 18.2757 11.9278C18.3139 11.6299 18.333 11.3205 18.333 10.9997C18.333 10.6788 18.3139 10.3695 18.2757 10.0715C18.2375 9.77363 18.1802 9.4719 18.1038 9.16634H14.9872C15.033 9.4719 15.0674 9.77363 15.0903 10.0715C15.1132 10.3695 15.1247 10.6788 15.1247 10.9997C15.1247 11.3205 15.1132 11.6299 15.0903 11.9278C15.0674 12.2257 15.033 12.5275 14.9872 12.833ZM14.6205 7.33301H17.3247C16.8816 6.56912 16.3278 5.90454 15.6632 5.33926C14.9986 4.77398 14.2386 4.35384 13.383 4.07884C13.658 4.58301 13.8986 5.10627 14.1049 5.64863C14.3111 6.19099 14.483 6.75245 14.6205 7.33301ZM9.25801 7.33301H12.7413C12.558 6.66079 12.3212 6.02676 12.0309 5.43092C11.7406 4.83509 11.3969 4.26217 10.9997 3.71217C10.6025 4.26217 10.2587 4.83509 9.96842 5.43092C9.67815 6.02676 9.44134 6.66079 9.25801 7.33301ZM4.67467 7.33301H7.37884C7.51634 6.75245 7.68822 6.19099 7.89447 5.64863C8.10072 5.10627 8.34134 4.58301 8.61634 4.07884C7.76079 4.35384 7.00072 4.77398 6.33613 5.33926C5.67155 5.90454 5.11773 6.56912 4.67467 7.33301Z" fill="white"/>
</g>
</svg>
