<svg width="16" height="16" viewBox="0 0 16 16" fill="none" xmlns="http://www.w3.org/2000/svg">
<g id="linkedin-svgrepo-com(1) 1" clip-path="url(#clip0_144_12659)">
<g id="Group">
<path id="Vector" d="M3.53184 5.13184H0.413086V16.0004H3.53184V5.13184Z" fill="white"/>
<path id="Vector_2" d="M1.90723 0C0.757227 0 0.000976562 0.809869 0.000976562 1.88516C0.000976562 2.94003 0.732227 3.77031 1.86348 3.77031H1.88848C3.06348 3.77031 3.79473 2.93322 3.78848 1.88516C3.76348 0.809869 3.05723 0 1.90723 0Z" fill="white"/>
<path id="Vector_3" d="M12.0514 5.0293C10.2639 5.0293 9.14512 6.09097 8.93887 6.83959V5.13138H5.43262C5.47637 6.03653 5.43262 15.9999 5.43262 15.9999H8.93887V10.1267C8.93887 9.79323 8.92637 9.46656 9.01387 9.23517C9.25137 8.58183 9.77012 7.90127 10.7014 7.90127C11.9201 7.90127 12.4701 8.9085 12.4701 10.3785V15.9999H16.0076V9.95656C16.0076 6.59459 14.2701 5.0293 12.0514 5.0293Z" fill="white"/>
</g>
</g>
<defs>
<clipPath id="clip0_144_12659">
<rect width="16" height="16" fill="white"/>
</clipPath>
</defs>
</svg>
