<svg width="22" height="22" viewBox="0 0 22 22" fill="none" xmlns="http://www.w3.org/2000/svg">
<g id="location_on_24dp_UNDEFINED_FILL0_wght400_GRAD0_opsz24 1">
<path id="Vector" d="M11.0003 10.9997C11.5045 10.9997 11.9361 10.8202 12.2951 10.4611C12.6541 10.1021 12.8337 9.67051 12.8337 9.16634C12.8337 8.66217 12.6541 8.23058 12.2951 7.87155C11.9361 7.51252 11.5045 7.33301 11.0003 7.33301C10.4962 7.33301 10.0646 7.51252 9.70553 7.87155C9.34651 8.23058 9.16699 8.66217 9.16699 9.16634C9.16699 9.67051 9.34651 10.1021 9.70553 10.4611C10.0646 10.8202 10.4962 10.9997 11.0003 10.9997ZM11.0003 17.7372C12.8642 16.0261 14.2469 14.4715 15.1482 13.0736C16.0496 11.6757 16.5003 10.4344 16.5003 9.34967C16.5003 7.6844 15.9694 6.32085 14.9076 5.25905C13.8458 4.19724 12.5434 3.66634 11.0003 3.66634C9.45727 3.66634 8.15484 4.19724 7.09303 5.25905C6.03123 6.32085 5.50033 7.6844 5.50033 9.34967C5.50033 10.4344 5.95102 11.6757 6.85241 13.0736C7.7538 14.4715 9.13644 16.0261 11.0003 17.7372ZM11.0003 20.1663C8.5406 18.0733 6.70345 16.1292 5.48887 14.334C4.27428 12.5389 3.66699 10.8775 3.66699 9.34967C3.66699 7.05801 4.40414 5.23231 5.87845 3.87259C7.35276 2.51287 9.06005 1.83301 11.0003 1.83301C12.9406 1.83301 14.6479 2.51287 16.1222 3.87259C17.5965 5.23231 18.3337 7.05801 18.3337 9.34967C18.3337 10.8775 17.7264 12.5389 16.5118 14.334C15.2972 16.1292 13.46 18.0733 11.0003 20.1663Z" fill="white"/>
</g>
</svg>
