<svg width="56" height="56" viewBox="0 0 56 56" fill="none" xmlns="http://www.w3.org/2000/svg">
<g id="call_28dp_UNDEFINED_FILL0_wght400_GRAD0_opsz24 4">
<rect width="56" height="56" rx="9.33333" fill="#37A0D2"/>
<path id="Vector" d="M12 44C10.9 44 9.95833 43.6083 9.175 42.825C8.39167 42.0417 8 41.1 8 40V16C8 14.9 8.39167 13.9583 9.175 13.175C9.95833 12.3917 10.9 12 12 12H44C45.1 12 46.0417 12.3917 46.825 13.175C47.6083 13.9583 48 14.9 48 16V40C48 41.1 47.6083 42.0417 46.825 42.825C46.0417 43.6083 45.1 44 44 44H12ZM28 30L12 20V40H44V20L28 30ZM28 26L44 16H12L28 26ZM12 20V16V40V20Z" fill="white"/>
</g>
</svg>
