<svg width="75" height="44" viewBox="0 0 75 44" fill="none" xmlns="http://www.w3.org/2000/svg">
<path id="Vector" d="M0 21.8335C0 22.6623 0.329241 23.4571 0.915292 24.0432C1.50134 24.6292 2.2962 24.9585 3.125 24.9585H64.3313L50.9188 38.371C50.3495 38.9604 50.0345 39.7497 50.0416 40.5691C50.0488 41.3885 50.3774 42.1723 50.9568 42.7517C51.5362 43.3311 52.32 43.6597 53.1394 43.6668C53.9587 43.674 54.7481 43.359 55.3375 42.7897L74.0875 24.0397C74.3767 23.7522 74.6061 23.4104 74.7627 23.0339C74.9193 22.6575 75 22.2537 75 21.846V21.8335C75 21.4272 74.9188 21.021 74.7563 20.6397C74.6005 20.2609 74.3711 19.9167 74.0812 19.6272L55.3312 0.877224C54.7419 0.30798 53.9525 -0.00700193 53.1331 0.000118133C52.3138 0.00723819 51.53 0.33589 50.9506 0.915291C50.3712 1.49469 50.0425 2.27848 50.0354 3.09785C50.0283 3.91721 50.3433 4.70659 50.9125 5.29598L64.3313 18.7085H3.125C2.2962 18.7085 1.50134 19.0377 0.915292 19.6238C0.329241 20.2098 0 21.0047 0 21.8335Z" fill="black"/>
</svg>
